<svg xmlns="http://www.w3.org/2000/svg" viewBox="0 0 1200 720"><defs><linearGradient id="bg" x1="0" y1="0" x2="1" y2="1"><stop stop-color="#f4ebe6"/><stop offset=".65" stop-color="#ddcbc1"/><stop offset="1" stop-color="#9d6f72"/></linearGradient><linearGradient id="panel" x1="0" y1="0" x2="0" y2="1"><stop stop-color="#fff" stop-opacity=".96"/><stop offset="1" stop-color="#f8efeb" stop-opacity=".88"/></linearGradient><filter id="sh"><feDropShadow dx="0" dy="18" stdDeviation="18" flood-color="#5f3c43" flood-opacity=".16"/></filter></defs><rect width="1200" height="720" fill="url(#bg)"/><circle cx="170" cy="150" r="260" fill="#fff" opacity=".24"/><g filter="url(#sh)" transform="translate(105 90)"><rect width="990" height="535" rx="24" fill="url(#panel)" stroke="#7a2021" stroke-opacity=".12"/><g transform="translate(45 42)"><rect width="570" height="255" rx="16" fill="#fff" stroke="#7a2021" stroke-opacity=".12"/><g stroke="#ad9691" stroke-opacity=".2"><path d="M30 62H540M30 113H540M30 164H540M30 215H540"/><path d="M100 30V230M190 30V230M280 30V230M370 30V230M460 30V230"/></g><path d="M35 203C102 185 132 214 190 155S285 181 336 123 432 109 535 54" fill="none" stroke="#7a2021" stroke-width="5"/><path d="M35 219C105 205 156 197 207 185S297 160 354 168 458 125 535 118" fill="none" stroke="#c7a39d" stroke-width="3"/></g><g transform="translate(650 42)"><rect width="295" height="255" rx="16" fill="#fff" stroke="#7a2021" stroke-opacity=".12"/><circle cx="147" cy="105" r="67" fill="none" stroke="#e3d5cf" stroke-width="23"/><path d="M147 38A67 67 0 0 1 207 135" fill="none" stroke="#7a2021" stroke-width="23" stroke-linecap="round"/><rect x="55" y="199" width="181" height="8" rx="4" fill="#7a2021" opacity=".16"/><rect x="55" y="224" width="126" height="8" rx="4" fill="#7a2021" opacity=".1"/></g><g transform="translate(45 327)"><rect width="900" height="160" rx="16" fill="#fff" stroke="#7a2021" stroke-opacity=".12"/><g fill="#9f5b61"><circle cx="83" cy="80" r="9"/><circle cx="151" cy="56" r="8"/><circle cx="221" cy="102" r="7"/><circle cx="294" cy="69" r="10"/><circle cx="364" cy="95" r="8"/><circle cx="438" cy="51" r="9"/><circle cx="509" cy="78" r="8"/><circle cx="579" cy="42" r="9"/></g><path d="M83 80L151 56 221 102 294 69 364 95 438 51 509 78 579 42 664 70 745 51 823 65" fill="none" stroke="#7a2021" stroke-width="3" opacity=".75"/><g fill="#7a2021" opacity=".18"><rect x="661" y="101" width="37" height="28" rx="5"/><rect x="713" y="83" width="37" height="46" rx="5"/><rect x="765" y="61" width="37" height="68" rx="5"/><rect x="817" y="39" width="37" height="90" rx="5"/></g></g></g></svg>