<svg xmlns="http://www.w3.org/2000/svg" viewBox="0 0 1200 720"><defs><linearGradient id="bg" x1="0" y1="0" x2="1" y2="1"><stop stop-color="#17191d"/><stop offset=".56" stop-color="#28262a"/><stop offset="1" stop-color="#4a2027"/></linearGradient><linearGradient id="glass" x1="0" y1="0" x2="0" y2="1"><stop stop-color="#fff" stop-opacity=".14"/><stop offset="1" stop-color="#fff" stop-opacity=".035"/></linearGradient><filter id="glow"><feGaussianBlur stdDeviation="10" result="b"/><feMerge><feMergeNode in="b"/><feMergeNode in="SourceGraphic"/></feMerge></filter></defs><rect width="1200" height="720" fill="url(#bg)"/><circle cx="970" cy="130" r="270" fill="#7a2021" opacity=".12"/><path d="M0 640 C210 570 300 620 470 500 S750 340 1200 410" fill="none" stroke="#b68a81" stroke-opacity=".16" stroke-width="2"/><g transform="translate(95 105)"><rect width="1010" height="510" rx="24" fill="#0d0f12" stroke="#fff" stroke-opacity=".12"/><g opacity=".97"><rect x="36" y="34" width="595" height="278" rx="14" fill="url(#glass)" stroke="#fff" stroke-opacity=".1"/><g stroke="#6d727c" stroke-opacity=".25"><path d="M62 84H605M62 137H605M62 190H605M62 243H605"/><path d="M115 58V292M220 58V292M325 58V292M430 58V292M535 58V292"/></g><path d="M64 245L120 229 170 253 229 196 287 211 348 148 404 163 463 114 518 137 579 78" fill="none" stroke="#e5c7bd" stroke-width="5" filter="url(#glow)"/><g fill="#7a2021"><circle cx="229" cy="196" r="7"/><circle cx="404" cy="163" r="7"/><circle cx="579" cy="78" r="7"/></g></g><g transform="translate(660 34)"><rect width="314" height="278" rx="14" fill="url(#glass)" stroke="#fff" stroke-opacity=".1"/><circle cx="158" cy="119" r="70" fill="none" stroke="#4a5059" stroke-width="18"/><path d="M158 49A70 70 0 0 1 224 142" fill="none" stroke="#b26c68" stroke-width="18" stroke-linecap="round"/><rect x="54" y="213" width="205" height="8" rx="4" fill="#fff" opacity=".12"/><rect x="54" y="238" width="144" height="8" rx="4" fill="#fff" opacity=".08"/></g><g transform="translate(36 341)"><rect width="938" height="132" rx="14" fill="url(#glass)" stroke="#fff" stroke-opacity=".1"/><g fill="#d5a69d" opacity=".85"><rect x="38" y="72" width="20" height="35"/><rect x="70" y="55" width="20" height="52"/><rect x="102" y="36" width="20" height="71"/><rect x="134" y="64" width="20" height="43"/><rect x="166" y="47" width="20" height="60"/></g><path d="M242 91C320 24 378 98 443 55S568 31 622 72 728 34 895 48" fill="none" stroke="#f1ded8" stroke-width="4"/><g fill="#fff" opacity=".12"><rect x="242" y="104" width="162" height="6" rx="3"/><rect x="423" y="104" width="96" height="6" rx="3"/><rect x="539" y="104" width="133" height="6" rx="3"/></g></g></g></g></svg>