<svg xmlns="http://www.w3.org/2000/svg" viewBox="0 0 1200 720"><defs><linearGradient id="bg" x1="0" y1="0" x2="1" y2="1"><stop stop-color="#efe5df"/><stop offset=".55" stop-color="#cfc0b8"/><stop offset="1" stop-color="#694149"/></linearGradient><linearGradient id="g" x1="0" y1="0" x2="0" y2="1"><stop stop-color="#fff" stop-opacity=".86"/><stop offset="1" stop-color="#fff" stop-opacity=".28"/></linearGradient><filter id="sh"><feDropShadow dx="0" dy="16" stdDeviation="16" flood-color="#40272d" flood-opacity=".18"/></filter></defs><rect width="1200" height="720" fill="url(#bg)"/><g filter="url(#sh)" transform="translate(82 95)"><rect width="1036" height="520" rx="28" fill="#f5ebe7" fill-opacity=".5" stroke="#fff" stroke-opacity=".5"/><g fill="none" stroke="#7a2021" stroke-width="4"><path d="M96 132H286C330 132 349 161 349 199V232H500"/><path d="M500 232H671C713 232 739 260 739 298V332H910"/><path d="M500 232V390H661"/><path d="M739 332V432H910"/></g><g fill="url(#g)" stroke="#fff" stroke-opacity=".75"><rect x="45" y="82" width="165" height="98" rx="18"/><rect x="285" y="183" width="180" height="98" rx="18"/><rect x="487" y="183" width="180" height="98" rx="18"/><rect x="686" y="282" width="180" height="98" rx="18"/><rect x="883" y="282" width="108" height="98" rx="18"/><rect x="487" y="352" width="180" height="98" rx="18"/><rect x="883" y="383" width="108" height="98" rx="18"/></g><g fill="#7a2021"><circle cx="127" cy="131" r="14"/><circle cx="375" cy="232" r="14"/><circle cx="577" cy="232" r="14"/><circle cx="776" cy="331" r="14"/><circle cx="937" cy="331" r="14"/><circle cx="577" cy="401" r="14"/><circle cx="937" cy="432" r="14"/></g><g stroke="#5f4549" stroke-opacity=".28" stroke-width="6"><path d="M76 161H175"/><path d="M327 260H431"/><path d="M529 260H633"/><path d="M728 360H832"/><path d="M529 430H633"/></g><g fill="#a14f55"><rect x="751" y="113" width="213" height="78" rx="16" opacity=".9"/><path d="M793 151h35m-17-17v34" stroke="#fff" stroke-width="5"/><circle cx="898" cy="151" r="13" fill="#fff" opacity=".8"/></g></g></svg>