<svg xmlns="http://www.w3.org/2000/svg" viewBox="0 0 1400 900"><defs><linearGradient id="b" x1="0" y1="0" x2="1" y2="1"><stop stop-color="#111318"/><stop offset=".6" stop-color="#242429"/><stop offset="1" stop-color="#4d2229"/></linearGradient><linearGradient id="g" x1="0" y1="0" x2="0" y2="1"><stop stop-color="#fff" stop-opacity=".16"/><stop offset="1" stop-color="#fff" stop-opacity=".025"/></linearGradient><radialGradient id="r"><stop stop-color="#b66a69" stop-opacity=".32"/><stop offset="1" stop-color="#b66a69" stop-opacity="0"/></radialGradient><filter id="s"><feDropShadow dx="0" dy="18" stdDeviation="18" flood-color="#000" flood-opacity=".35"/></filter></defs><rect width="1400" height="900" fill="url(#b)"/><ellipse cx="1070" cy="170" rx="430" ry="300" fill="url(#r)"/><path d="M0 745C235 670 365 755 553 610S938 405 1400 522" fill="none" stroke="#d8b1a8" stroke-opacity=".12" stroke-width="3"/><g filter="url(#s)" transform="translate(95 100)"><g><rect x="0" y="0" width="580" height="330" rx="22" fill="#0d1014" stroke="#fff" stroke-opacity=".12"/><g stroke="#68707a" stroke-opacity=".22"><path d="M34 77H546M34 137H546M34 197H546M34 257H546"/><path d="M108 35V296M205 35V296M302 35V296M399 35V296M496 35V296"/></g><path d="M38 256L91 237 148 252 196 210 243 222 296 165 348 182 401 115 454 143 512 77 544 91" fill="none" stroke="#f1d8d2" stroke-width="5"/><g stroke="#bd7772" stroke-width="4"><path d="M95 180V227"/><path d="M126 157V204"/><path d="M157 175V223"/><path d="M188 133V196"/><path d="M219 142V187"/><path d="M250 106V170"/></g></g><g transform="translate(610 0)"><rect width="600" height="330" rx="22" fill="url(#g)" stroke="#fff" stroke-opacity=".12"/><path d="M62 244C134 172 197 212 254 161S376 118 438 150 505 115 548 92" fill="none" stroke="#dfc5bf" stroke-width="4"/><path d="M64 90C155 118 187 73 263 107S409 195 540 150" fill="none" stroke="#a8595c" stroke-width="3" opacity=".9"/><g fill="#fff" opacity=".08"><rect x="61" y="272" width="157" height="7" rx="3"/><rect x="237" y="272" width="111" height="7" rx="3"/><rect x="367" y="272" width="172" height="7" rx="3"/></g><g transform="translate(462 44)"><circle cx="45" cy="45" r="36" fill="none" stroke="#3b4149" stroke-width="12"/><path d="M45 9A36 36 0 0 1 79 55" fill="none" stroke="#a95759" stroke-width="12" stroke-linecap="round"/></g></g><g transform="translate(0 365)"><rect width="385" height="298" rx="22" fill="url(#g)" stroke="#fff" stroke-opacity=".12"/><g transform="translate(38 43)" fill="#c98b84"><rect x="0" y="123" width="27" height="69"/><rect x="43" y="95" width="27" height="97"/><rect x="86" y="54" width="27" height="138"/><rect x="129" y="118" width="27" height="74"/><rect x="172" y="82" width="27" height="110"/><rect x="215" y="35" width="27" height="157"/><rect x="258" y="65" width="27" height="127"/></g></g><g transform="translate(420 365)"><rect width="385" height="298" rx="22" fill="#101317" stroke="#fff" stroke-opacity=".12"/><path d="M40 210C89 151 127 188 171 133S252 173 341 74" fill="none" stroke="#f0d8d1" stroke-width="5"/><path d="M40 237C116 222 166 242 227 198S299 182 345 160" fill="none" stroke="#8f4a50" stroke-width="3"/><g fill="#fff" opacity=".1"><rect x="40" y="38" width="144" height="8" rx="4"/><rect x="40" y="63" width="95" height="8" rx="4"/></g></g><g transform="translate(840 365)"><rect width="370" height="298" rx="22" fill="url(#g)" stroke="#fff" stroke-opacity=".12"/><g fill="#8f3e46" opacity=".8"><rect x="45" y="55" width="44" height="44" rx="8"/><rect x="109" y="55" width="44" height="44" rx="8"/><rect x="173" y="55" width="44" height="44" rx="8"/><rect x="237" y="55" width="44" height="44" rx="8"/></g><path d="M67 118V188H303" stroke="#d6bbb5" stroke-opacity=".48" stroke-width="3" fill="none"/><circle cx="303" cy="188" r="16" fill="#c67c77"/><g fill="#fff" opacity=".09"><rect x="45" y="226" width="269" height="7" rx="3"/><rect x="45" y="249" width="186" height="7" rx="3"/></g></g></g></svg>